#define smolohm_width 16
#define smolohm_height 16
static unsigned char smolohm_bits[] = {
   0xc0, 0x03, 0xf0, 0x0f, 0x38, 0x1c, 0x1c, 0x38, 0x0c, 0x30, 0x0e, 0x70,
   0x0e, 0x70, 0x0e, 0x70, 0x0e, 0x70, 0x0c, 0x30, 0x1c, 0x38, 0x38, 0x1c,
   0x30, 0x0c, 0x62, 0x46, 0x7e, 0x7e, 0x7e, 0x7e };
