P1
# CREATOR: GIMP PNM Filter Version 1.1
16 16
0000001111000000000011111111000000011100001110000011100000011100001100
0000001100011100000000111001110000000011100111000000001110011100000000
1110001100000000110000111000000111000001110000111000000011000011000001
0001100110001001111110011111100111111001111110